<svg width="50" height="50" viewBox="0 0 50 50" fill="none" xmlns="http://www.w3.org/2000/svg">
<g clip-path="url(#clip0_14_35)">
<path d="M9.375 0C6.8886 0 4.50403 0.987721 2.74587 2.74587C0.987721 4.50403 0 6.8886 0 9.375V34.375C0 36.8614 0.987721 39.246 2.74587 41.0041C4.50403 42.7623 6.8886 43.75 9.375 43.75H20.625C20.114 42.7512 19.7026 41.7045 19.3969 40.625H9.375C7.7174 40.625 6.12768 39.9665 4.95558 38.7944C3.78348 37.6223 3.125 36.0326 3.125 34.375V9.375C3.125 7.7174 3.78348 6.12768 4.95558 4.95558C6.12768 3.78348 7.7174 3.125 9.375 3.125H34.375C36.0326 3.125 37.6223 3.78348 38.7944 4.95558C39.9665 6.12768 40.625 7.7174 40.625 9.375V19.3969C41.7156 19.7062 42.7594 20.1156 43.75 20.625V9.375C43.75 6.8886 42.7623 4.50403 41.0041 2.74587C39.246 0.987721 36.8614 0 34.375 0H9.375ZM20.3125 21.875H26.0531C28.85 19.9063 32.2594 18.75 35.9375 18.75H20.3125C19.8981 18.75 19.5007 18.9146 19.2076 19.2076C18.9146 19.5007 18.75 19.8981 18.75 20.3125C18.75 20.7269 18.9146 21.1243 19.2076 21.4174C19.5007 21.7104 19.8981 21.875 20.3125 21.875ZM7.8125 6.25C7.3981 6.25 7.00067 6.41462 6.70765 6.70765C6.41462 7.00067 6.25 7.3981 6.25 7.8125C6.25 8.2269 6.41462 8.62433 6.70765 8.91735C7.00067 9.21038 7.3981 9.375 7.8125 9.375H35.9375C36.3519 9.375 36.7493 9.21038 37.0424 8.91735C37.3354 8.62433 37.5 8.2269 37.5 7.8125C37.5 7.3981 37.3354 7.00067 37.0424 6.70765C36.7493 6.41462 36.3519 6.25 35.9375 6.25H7.8125ZM10.9375 25C12.1807 25 13.373 24.5061 14.2521 23.6271C15.1311 22.748 15.625 21.5557 15.625 20.3125C15.625 19.0693 15.1311 17.877 14.2521 16.9979C13.373 16.1189 12.1807 15.625 10.9375 15.625C9.6943 15.625 8.50201 16.1189 7.62294 16.9979C6.74386 17.877 6.25 19.0693 6.25 20.3125C6.25 21.5557 6.74386 22.748 7.62294 23.6271C8.50201 24.5061 9.6943 25 10.9375 25ZM10.9375 21.875C10.5231 21.875 10.1257 21.7104 9.83265 21.4174C9.53962 21.1243 9.375 20.7269 9.375 20.3125C9.375 19.8981 9.53962 19.5007 9.83265 19.2076C10.1257 18.9146 10.5231 18.75 10.9375 18.75C11.3519 18.75 11.7493 18.9146 12.0424 19.2076C12.3354 19.5007 12.5 19.8981 12.5 20.3125C12.5 20.7269 12.3354 21.1243 12.0424 21.4174C11.7493 21.7104 11.3519 21.875 10.9375 21.875ZM10.9375 37.5C12.1807 37.5 13.373 37.0061 14.2521 36.1271C15.1311 35.248 15.625 34.0557 15.625 32.8125C15.625 31.5693 15.1311 30.377 14.2521 29.4979C13.373 28.6189 12.1807 28.125 10.9375 28.125C9.6943 28.125 8.50201 28.6189 7.62294 29.4979C6.74386 30.377 6.25 31.5693 6.25 32.8125C6.25 34.0557 6.74386 35.248 7.62294 36.1271C8.50201 37.0061 9.6943 37.5 10.9375 37.5ZM10.9375 31.25C11.3519 31.25 11.7493 31.4146 12.0424 31.7076C12.3354 32.0007 12.5 32.3981 12.5 32.8125C12.5 33.2269 12.3354 33.6243 12.0424 33.9174C11.7493 34.2104 11.3519 34.375 10.9375 34.375C10.5231 34.375 10.1257 34.2104 9.83265 33.9174C9.53962 33.6243 9.375 33.2269 9.375 32.8125C9.375 32.3981 9.53962 32.0007 9.83265 31.7076C10.1257 31.4146 10.5231 31.25 10.9375 31.25ZM50 35.9375C50 39.6671 48.5184 43.244 45.8812 45.8812C43.244 48.5184 39.6671 50 35.9375 50C32.2079 50 28.631 48.5184 25.9938 45.8812C23.3566 43.244 21.875 39.6671 21.875 35.9375C21.875 32.2079 23.3566 28.631 25.9938 25.9938C28.631 23.3566 32.2079 21.875 35.9375 21.875C39.6671 21.875 43.244 23.3566 45.8812 25.9938C48.5184 28.631 50 32.2079 50 35.9375ZM37.5 29.6875C37.5 29.2731 37.3354 28.8757 37.0424 28.5826C36.7493 28.2896 36.3519 28.125 35.9375 28.125C35.5231 28.125 35.1257 28.2896 34.8326 28.5826C34.5396 28.8757 34.375 29.2731 34.375 29.6875V34.375H29.6875C29.2731 34.375 28.8757 34.5396 28.5826 34.8326C28.2896 35.1257 28.125 35.5231 28.125 35.9375C28.125 36.3519 28.2896 36.7493 28.5826 37.0424C28.8757 37.3354 29.2731 37.5 29.6875 37.5H34.375V42.1875C34.375 42.6019 34.5396 42.9993 34.8326 43.2924C35.1257 43.5854 35.5231 43.75 35.9375 43.75C36.3519 43.75 36.7493 43.5854 37.0424 43.2924C37.3354 42.9993 37.5 42.6019 37.5 42.1875V37.5H42.1875C42.6019 37.5 42.9993 37.3354 43.2924 37.0424C43.5854 36.7493 43.75 36.3519 43.75 35.9375C43.75 35.5231 43.5854 35.1257 43.2924 34.8326C42.9993 34.5396 42.6019 34.375 42.1875 34.375H37.5V29.6875Z" fill="white"/>
</g>
<defs>
<clipPath id="clip0_14_35">
<rect width="50" height="50" fill="white"/>
</clipPath>
</defs>
</svg>
