<svg width="100" height="100" viewBox="0 0 100 100" fill="none" xmlns="http://www.w3.org/2000/svg">
<path d="M56.25 93.75H43.75C42.0924 93.75 40.5027 93.0915 39.3306 91.9194C38.1585 90.7473 37.5 89.1576 37.5 87.5V65.625C35.8424 65.625 34.2527 64.9665 33.0806 63.7944C31.9085 62.6223 31.25 61.0326 31.25 59.375V40.625C31.25 38.1386 32.2377 35.754 33.9959 33.9959C35.754 32.2377 38.1386 31.25 40.625 31.25H59.375C61.8614 31.25 64.246 32.2377 66.0041 33.9959C67.7623 35.754 68.75 38.1386 68.75 40.625V59.375C68.75 61.0326 68.0915 62.6223 66.9194 63.7944C65.7473 64.9665 64.1576 65.625 62.5 65.625V87.5C62.5 89.1576 61.8415 90.7473 60.6694 91.9194C59.4973 93.0915 57.9076 93.75 56.25 93.75ZM40.625 37.5C40.2075 37.4724 39.7889 37.5343 39.3972 37.6816C39.0055 37.8288 38.6498 38.0581 38.354 38.354C38.0581 38.6498 37.8288 39.0055 37.6816 39.3972C37.5343 39.7889 37.4724 40.2075 37.5 40.625V59.375H43.75V87.5H56.25V59.375H62.5V40.625C62.5276 40.2075 62.4657 39.7889 62.3184 39.3972C62.1712 39.0055 61.9419 38.6498 61.646 38.354C61.3502 38.0581 60.9945 37.8288 60.6028 37.6816C60.2111 37.5343 59.7925 37.4724 59.375 37.5H40.625ZM50 28.125C47.5277 28.125 45.111 27.3919 43.0554 26.0184C40.9998 24.6448 39.3976 22.6926 38.4515 20.4085C37.5054 18.1245 37.2579 15.6111 37.7402 13.1864C38.2225 10.7616 39.413 8.53432 41.1612 6.78616C42.9093 5.03801 45.1366 3.8475 47.5614 3.36518C49.9861 2.88287 52.4995 3.13041 54.7835 4.0765C57.0676 5.0226 59.0199 6.62476 60.3934 8.68037C61.7669 10.736 62.5 13.1527 62.5 15.625C62.5 18.9402 61.183 22.1196 58.8388 24.4638C56.4946 26.808 53.3152 28.125 50 28.125ZM50 9.375C48.7639 9.375 47.5555 9.74155 46.5277 10.4283C45.4999 11.1151 44.6988 12.0912 44.2258 13.2332C43.7527 14.3753 43.6289 15.6319 43.8701 16.8443C44.1112 18.0567 44.7065 19.1703 45.5806 20.0444C46.4547 20.9185 47.5683 21.5137 48.7807 21.7549C49.9931 21.9961 51.2497 21.8723 52.3918 21.3992C53.5338 20.9262 54.5099 20.1251 55.1967 19.0973C55.8834 18.0695 56.25 16.8611 56.25 15.625C56.25 13.9674 55.5915 12.3777 54.4194 11.2056C53.2473 10.0335 51.6576 9.375 50 9.375Z" fill="white"/>
</svg>
