<svg width="50" height="50" viewBox="0 0 50 50" fill="none" xmlns="http://www.w3.org/2000/svg">
<path d="M30.6057 8.0001C30.7019 8.0001 30.7985 8.00303 30.8957 8.00928C32.4499 8.1084 34.0252 9.13565 34.5852 10.6398C37.9125 19.5785 39.574 23.2243 40.5911 32.4051C39.162 33.7225 37.5022 34.9881 35.6838 36.1282L29.1989 16.942L27.4715 17.5248L34.0787 37.0772C32.1735 38.1395 30.1305 39.0532 28.0241 39.7413L20.6601 20.0606L18.9511 20.6983L26.2692 40.2571C24.3694 40.7548 22.4406 41.0579 20.5289 41.1238L12.7833 23.6983L11.114 24.4399L18.5237 41.1056C16.3928 40.9848 14.3044 40.5423 12.3286 39.711C8.09847 34.4528 5.23558 28.9899 4.0767 22.8468C3.57943 20.2108 5.5183 17.6589 9.37162 17.4942L9.97269 17.4667L10.1864 16.9052C11.0116 14.7188 12.1151 13.9664 13.2625 13.7343C14.41 13.5022 15.73 13.8842 16.7262 14.4546L18.002 15.1841L18.0905 13.7192C18.1871 12.1181 19.1005 10.8289 20.4648 10.2401C21.829 9.65127 23.6937 9.7292 25.8175 11.2075L26.8369 11.9155L27.2091 10.7314C27.8455 8.70352 29.1629 7.99854 30.6056 8L30.6057 8.0001ZM39.9381 20.0698C43.0765 24.4745 45.3631 30.9308 45.0038 36.7995C42.3144 38.9323 39.6708 40.0898 37.1852 40.2603C35.8029 40.355 34.4567 40.1543 33.1417 39.6315C36.6032 37.9484 39.7199 35.7709 42.1841 33.4274L42.5106 33.1191L42.4618 32.6704C41.8959 27.3347 41.0998 23.7349 39.9379 20.0698H39.9381Z" fill="white"/>
</svg>
