<svg width="50" height="50" viewBox="0 0 50 50" fill="none" xmlns="http://www.w3.org/2000/svg">
<g clip-path="url(#clip0_14_33)">
<path d="M47.2222 -3H2.77778C2.04107 -3 1.33453 -2.62373 0.813592 -1.95395C0.292658 -1.28418 0 -0.375773 0 0.571429V41.0476C0 42.6263 0.487763 44.1403 1.35599 45.2566C2.22421 46.3729 3.40178 47 4.62963 47H45.3704C46.5982 47 47.7758 46.3729 48.644 45.2566C49.5122 44.1403 50 42.6263 50 41.0476V0.571429C50 -0.375773 49.7073 -1.28418 49.1864 -1.95395C48.6655 -2.62373 47.9589 -3 47.2222 -3ZM5.55556 18.4286H12.963V25.5714H5.55556V18.4286ZM18.5185 18.4286H44.4444V25.5714H18.5185V18.4286ZM44.4444 4.14286V11.2857H5.55556V4.14286H44.4444ZM5.55556 32.7143H12.963V39.8571H5.55556V32.7143ZM18.5185 39.8571V32.7143H44.4444V39.8571H18.5185Z" fill="white"/>
</g>
<defs>
<clipPath id="clip0_14_33">
<rect width="50" height="50" fill="white"/>
</clipPath>
</defs>
</svg>
